<svg xmlns="http://www.w3.org/2000/svg" width="14" height="24" fill="none">
    <path fill="#153416"
          d="M10.103 0C8.412 0 6.79.64 5.593 1.781 4.396 2.922 3.724 4.47 3.724 6.082v3.386H.31a.303.303 0 0 0-.31.296v4.472c0 .163.139.295.31.295h3.414v9.173c0 .164.14.296.31.296h4.69c.172 0 .31-.132.31-.296v-9.173h3.444a.308.308 0 0 0 .302-.224l1.172-4.47c.049-.188-.1-.369-.301-.369H9.034V6.082c0-.27.113-.53.314-.72.2-.192.472-.299.755-.299h3.587c.171 0 .31-.132.31-.296V.296A.303.303 0 0 0 13.69 0h-3.587Z"/>
</svg>