<svg xmlns="http://www.w3.org/2000/svg" width="24" height="24" fill="none">
    <path fill="#153416"
          d="M12 7.764A4.24 4.24 0 0 0 7.757 12 4.24 4.24 0 0 0 12 16.236 4.24 4.24 0 0 0 16.242 12 4.24 4.24 0 0 0 12 7.764Z"/>
    <path fill="#153416" fill-rule="evenodd"
          d="M5.172.377a62.075 62.075 0 0 1 13.656 0c2.479.276 4.477 2.226 4.768 4.708a59.414 59.414 0 0 1 0 13.83c-.29 2.482-2.29 4.432-4.768 4.708a62.07 62.07 0 0 1-13.656 0C2.693 23.347.695 21.397.404 18.914a59.423 59.423 0 0 1 0-13.829C.694 2.603 2.694.653 5.172.377ZM18.527 4.18a1.304 1.304 0 1 0 1.306 1.304c0-.72-.585-1.304-1.306-1.304ZM5.8 12A6.196 6.196 0 0 1 12 5.81c3.425 0 6.2 2.771 6.2 6.19a6.196 6.196 0 0 1-6.2 6.19A6.196 6.196 0 0 1 5.799 12Z"
          clip-rule="evenodd"/>
</svg>
