<svg xmlns="http://www.w3.org/2000/svg" width="24" height="24" fill="none">
    <path fill="#153416"
          d="M2.72 0C1.218 0 0 1.186 0 2.65c0 1.463 1.218 2.649 2.72 2.649 1.502 0 2.72-1.186 2.72-2.65C5.44 1.186 4.222 0 2.72 0ZM.16 7.48c-.088 0-.16.07-.16.156v16.208c0 .086.072.156.16.156h5.12c.088 0 .16-.07.16-.156V7.636a.158.158 0 0 0-.16-.155H.16ZM8.48 7.48c-.088 0-.16.07-.16.156v16.208c0 .086.072.156.16.156h5.12c.088 0 .16-.07.16-.156v-8.727c0-.62.253-1.215.703-1.653a2.433 2.433 0 0 1 1.697-.685c.637 0 1.247.246 1.697.685.45.438.703 1.033.703 1.653v8.727c0 .086.072.156.16.156h5.12c.088 0 .16-.07.16-.156V13.097c0-3.025-2.702-5.392-5.792-5.118a9.374 9.374 0 0 0-2.776.682l-1.672.698V7.636a.158.158 0 0 0-.16-.155H8.48Z"/>
</svg>